# Blender v2.77 (sub 0) OBJ File: 'Workshop_.blend'
# www.blender.org
mtllib Tombstone 1.mtl
o Cube
v 0.393159 0.000000 6.000000
v 0.393159 0.000000 8.000000
v -0.486735 0.000000 8.000000
v -0.486735 0.000000 6.000000
v 0.393159 0.799896 6.000000
v 0.393158 0.799896 8.000001
v -0.486735 0.799896 8.000000
v -0.486735 0.799896 6.000000
v 0.173354 1.138858 6.343289
v 0.173353 1.138858 7.656712
v -0.399939 1.138858 6.343288
v -0.399940 1.138858 7.656711
v 0.173354 3.728932 6.343289
v 0.173353 3.728932 7.656712
v -0.399939 3.728932 6.343288
v -0.399940 3.728932 7.656711
vt 0.9482 0.0000
vt 0.7772 0.3886
vt 0.7772 0.0000
vt 0.2221 0.7234
vt 0.1554 0.8517
vt 0.1554 0.7403
vt 0.7772 0.1526
vt 0.3886 0.0000
vt 0.7772 0.0000
vt 0.6554 0.7196
vt 0.5000 0.8906
vt 0.5000 0.7196
vt 0.3886 0.1549
vt 0.0000 0.0000
vt 0.3886 0.0000
vt 0.1554 0.7234
vt 0.0000 0.8944
vt 0.0000 0.7234
vt 0.8886 0.8919
vt 1.0000 0.3886
vt 1.0000 0.8919
vt 0.4553 0.2254
vt 0.3886 0.1526
vt 0.0667 0.2219
vt 0.0000 0.1549
vt 0.7221 0.8906
vt 0.6554 0.7623
vt 0.7221 0.7196
vt 0.3886 0.7196
vt 0.5000 0.9748
vt 0.3886 0.9748
vt 0.7105 0.2254
vt 0.4553 0.7196
vt 0.3219 0.2219
vt 0.0667 0.7234
vt 0.7772 0.8919
vt 0.8886 0.3886
vt 0.8886 0.8919
vt 0.9482 0.3886
vt 0.2221 0.8944
vt 0.6554 0.8906
vt 0.1554 0.8944
vt 0.8886 0.3886
vt 0.6554 0.8737
vt 0.5000 0.7196
vt 0.7105 0.7196
vt 0.3219 0.7234
vt 0.7772 0.3886
vn 0.0000 -1.0000 0.0000
vn -0.0000 0.7116 0.7026
vn 1.0000 -0.0000 0.0000
vn 0.0000 -0.0000 1.0000
vn -1.0000 -0.0000 -0.0000
vn 0.0000 0.0000 -1.0000
vn 0.8390 0.5441 0.0000
vn -0.9687 0.2481 -0.0000
vn 0.0000 0.7116 -0.7026
vn 0.0000 1.0000 0.0000
usemtl Tombstone_1
s off
f 1/1/1 3/2/1 4/3/1
f 7/4/2 10/5/2 12/6/2
f 5/7/3 2/8/3 1/9/3
f 6/10/4 3/11/4 2/12/4
f 7/13/5 4/14/5 3/15/5
f 1/16/6 8/17/6 5/18/6
f 10/19/4 16/20/4 12/21/4
f 5/7/7 10/22/7 6/23/7
f 7/13/8 11/24/8 8/25/8
f 8/26/9 9/27/9 5/28/9
f 13/29/10 16/30/10 14/31/10
f 9/32/3 14/33/3 10/22/3
f 12/34/5 15/35/5 11/24/5
f 11/36/6 13/37/6 9/38/6
f 1/1/1 2/39/1 3/2/1
f 7/4/2 6/40/2 10/5/2
f 5/7/3 6/23/3 2/8/3
f 6/10/4 7/41/4 3/11/4
f 7/13/5 8/25/5 4/14/5
f 1/16/6 4/42/6 8/17/6
f 10/19/4 14/43/4 16/20/4
f 5/7/7 9/32/7 10/22/7
f 7/13/8 12/34/8 11/24/8
f 8/26/9 11/44/9 9/27/9
f 13/29/10 15/45/10 16/30/10
f 9/32/3 13/46/3 14/33/3
f 12/34/5 16/47/5 15/35/5
f 11/36/6 15/48/6 13/37/6
