# Blender v2.77 (sub 0) OBJ File: 'Workshop_.blend'
# www.blender.org
mtllib Tombstone 3.mtl
o Cube.002
v -0.383723 0.475184 1.000000
v -0.192778 3.068070 1.000000
v -0.383723 0.475184 -1.000000
v -0.192778 3.068070 -1.000000
v 0.304578 0.475184 0.749943
v 0.097485 3.068070 1.000000
v 0.304578 0.475184 -0.749943
v 0.097485 3.068070 -1.000000
v -0.192778 3.609825 0.000000
v 0.097485 3.609825 0.000000
v -0.192778 3.068070 0.500000
v 0.097485 3.068070 0.500000
v 0.097485 3.068070 -0.500000
v -0.192778 3.068070 -0.500000
v 0.304578 2.737648 -0.749943
v 0.304578 2.737648 0.749943
v -0.446470 -0.024188 -1.252322
v -0.446470 -0.024188 1.252322
v 0.367325 -0.024188 -0.939170
v 0.367325 -0.024188 0.939170
vt 0.1217 0.0872
vt 0.2835 0.0872
vt 0.3644 0.5078
vt 0.7810 0.5000
vt 0.8261 0.5016
vt 0.7502 0.9156
vt 0.4861 0.0863
vt 0.6479 0.0863
vt 0.6884 0.1448
vt 0.7502 0.0844
vt 0.8694 0.4486
vt 0.8261 0.4984
vt 0.8694 0.0010
vt 0.8684 0.0850
vt 0.0939 0.6701
vt 0.0470 0.5892
vt 0.0939 0.5892
vt 0.6254 0.5865
vt 0.5812 0.6941
vt 0.5812 0.5954
vt 0.5812 0.5954
vt 0.5369 0.6853
vt 0.5369 0.5865
vt 0.0470 0.5892
vt 0.0000 0.6701
vt 0.0000 0.5892
vt 0.4457 0.5052
vt 0.4457 0.1448
vt 0.5369 0.9918
vt 0.4052 0.6372
vt 0.5369 0.5865
vt 0.8694 0.5514
vt 0.8684 0.9150
vt 0.7810 0.5000
vt 0.7190 0.5865
vt 0.4151 0.5865
vt 0.0000 0.5892
vt 0.0408 0.5078
vt 0.8694 0.9990
vt 0.7288 1.0000
vt 0.0408 0.0872
vt 0.2026 0.0000
vt 0.3644 0.0872
vt 0.4052 0.0863
vt 0.5670 0.0000
vt 0.7288 0.0863
vt 0.7288 0.0000
vt 0.0470 0.6701
vt 0.6254 0.6853
vt 0.5812 0.6941
vt 0.0470 0.6701
vt 0.6884 0.5052
vt 0.4052 0.9411
vt 0.4052 0.5892
vn -0.9973 0.0734 0.0000
vn 0.0000 0.0000 -1.0000
vn 0.8473 0.5311 0.0000
vn 0.6763 -0.1255 0.7259
vn 0.3171 0.3706 0.8730
vn 0.0000 1.0000 0.0000
vn 0.0000 0.6782 -0.7349
vn 0.0000 0.6782 0.7349
vn 1.0000 0.0000 0.0000
vn 0.0000 -1.0000 0.0000
vn 0.3415 0.0000 -0.9399
vn 0.0000 0.0000 1.0000
vn 0.9922 0.1247 0.0000
vn -0.9922 0.1247 0.0000
vn 0.3303 0.3923 -0.8585
vn -1.0000 0.0000 0.0000
vn 0.3415 0.0000 0.9399
vn 0.3303 0.3923 0.8585
vn 0.6763 -0.1255 -0.7259
vn 0.3171 0.3706 -0.8730
usemtl Tombstone_3
s off
f 11/1/1 14/2/1 3/3/1
f 4/4/2 8/5/2 3/6/2
f 13/7/3 12/8/3 16/9/3
f 1/10/4 16/11/4 6/12/4
f 1/10/5 20/13/5 5/14/5
f 12/15/6 2/16/6 6/17/6
f 10/18/7 14/19/7 9/20/7
f 12/21/8 9/22/8 11/23/8
f 13/24/6 4/25/6 14/26/6
f 16/9/9 7/27/9 15/28/9
f 17/29/10 20/30/10 18/31/10
f 3/6/11 15/32/11 7/33/11
f 1/10/12 6/12/12 2/34/12
f 7/27/13 20/35/13 19/36/13
f 3/3/14 18/37/14 1/38/14
f 3/6/15 19/39/15 17/40/15
f 1/38/1 2/41/1 11/1/1
f 11/1/16 9/42/16 14/2/16
f 14/2/1 4/43/1 3/3/1
f 3/3/1 1/38/1 11/1/1
f 15/28/3 8/44/3 13/7/3
f 13/7/9 10/45/9 12/8/9
f 12/8/3 6/46/3 16/9/3
f 16/9/3 15/28/3 13/7/3
f 1/10/17 5/14/17 16/11/17
f 1/10/18 18/47/18 20/13/18
f 12/15/6 11/48/6 2/16/6
f 10/18/7 13/49/7 14/19/7
f 12/21/8 10/50/8 9/22/8
f 13/24/6 8/51/6 4/25/6
f 16/9/9 5/52/9 7/27/9
f 17/29/10 19/53/10 20/30/10
f 3/6/19 8/5/19 15/32/19
f 7/27/13 5/52/13 20/35/13
f 3/3/14 17/54/14 18/37/14
f 3/6/20 7/33/20 19/39/20
